This tough and gritty French-language crime drama represents the premier installment in a two-part series of features on the life and doings of notorious Gallic hood Jacques Mesrine (1936-1979). Mesrine is played, in both installments, by actor Vincent Cassel, who reportedly underwent massive weight gain and weight loss to convincingly portray the volatile Mesrine at various periods of his life. Director Jean-François Richet begins in 1979, with Mesrine's uncommonly violent death, whereby he and a beautiful young woman are suddenly (and fatally) ambushed by Parisian police not far from Mesrine's place of birth. Richet then flashes back to the Franco-Algerian War of the late '50s and a brutal interrogation undergone by Mesrine. Following a military discharge, Mesrine returns to his parents' suburb of Clichy, where his dad has arranged a pathetic job for him in a lace-making factory. Never one to take humiliation lying down, Jacques perceives burglary, larceny, and racketeering as much-superior options and decides to pursue a life of crime via a "business partnership" with childhood buddy Paul (Gilles Lellouche), who works for mobster Guido (Gérard Depardieu).
As the years pass, Jacques works his way up through the ranks of the underworld; via Paul, he also meets and falls hard for two women: Pigalle streetwalker Sarah (Florence Thomassin), and Sofia (Elena Anaya), a beautiful Spanish woman with whom he cohabitates after doing time in a French prison. Following a brief and unsuccessful attempt to "go straight," Jacques reconnects with Guido, then finds it necessary to escape from France to Canada with his new mistress, Jeanne (Cécile De France). Unfortunately, another prison sentence is waiting for him there, replete with brutal solitary confinement, but the possibility of a daring escape beckons. The second half of the Mesrine saga, entitled Mesrine: L'Énnemi Public No. 1 for French release, followed immediately after and picks up where this installment wraps.

   General
      Complete name :Mesrine.Part.1.Killer.Instinct.2008.720p.BluRay.DTS.x264-ViGi.mkv
      Format : Matroska
      File size : 4.37 GiB
      Duration : 1h 53mn
      Overall bit rate : 5 524 Kbps
      Encoded date : UTC 2011-11-18 18:02:19
      Writing application : mkvmerge v5.0.1 ('Es ist Sommer') built on Oct  9 2011 11:55:43
      Writing library : libebml v1.2.2 + libmatroska v1.3.0
   Video #1
      ID : 1
      Format : AVC
      Format/Info : Advanced Video Codec
      Format profile : High@L4.1
      Format settings, CABAC : Yes
      Format settings, ReFrames : 9 frames
      Muxing mode : Container profile=Unknown@4.1
      Codec ID : V_MPEG4/ISO/AVC
      Duration : 1h 53mn
      Bit rate : 3 904 Kbps
      Nominal bit rate : 4 017 Kbps
      Width : 1 280 pixels
      Height : 544 pixels
      Display aspect ratio : 2.35:1
      Frame rate : 24.000 fps
      Resolution : 24 bits
      Colorimetry : 4:2:0
      Scan type : Progressive
      Bits/(Pixel*Frame) : 0.234
      Stream size : 3.09 GiB (71%)
      Writing library : x264 core 119 r2106 07efeb4
   Audio #2
      ID : 2
      Format : DTS
      Format/Info : Digital Theater Systems
      Codec ID : A_DTS
      Duration : 1h 53mn
      Bit rate mode : Constant
      Bit rate : 1 510 Kbps
      Channel(s) : 6 channels
      Channel positions : Front: L C R, Surround: L R, LFE
      Sampling rate : 48.0 KHz
      Resolution : 24 bits
      Stream size : 1.20 GiB (27%)
      Language : French
   Text #3
      ID : 3
      Format : UTF-8
      Codec ID : S_TEXT/UTF8
      Codec ID/Info : UTF-8 Plain Text
   Text #4
      ID : 4
      Format : UTF-8
      Codec ID : S_TEXT/UTF8
      Codec ID/Info : UTF-8 Plain Text
      Language : Dutch
 
http://www.imdb.com/title/tt1259014/

Language: French
Subtitles: English, Dutch (in mkv), Portuguese (srt)

